HIERARCHY
ROOT Hips
{
	OFFSET -3.958830 18.904000 13.208200
	CHANNELS 6 Xposition Yposition Zposition Zrotation Yrotation Xrotation 
	JOINT LHipJoint
	{
		OFFSET 0.000000 0.000000 0.000000
		CHANNELS 3 Zrotation Yrotation Xrotation
		JOINT LeftUpLeg
		{
			OFFSET 1.800000 -1.400000 0.085000
			CHANNELS 3 Zrotation Yrotation Xrotation
			JOINT LeftLeg
			{
				OFFSET 2.215000 -6.000000 0.000000
				CHANNELS 3 Zrotation Yrotation Xrotation
				JOINT LeftFoot
				{
					OFFSET 2.500000 -6.900000 0.000000
					CHANNELS 3 Zrotation Yrotation Xrotation
					JOINT LeftToeBase
					{
						OFFSET 0.200000 -0.500000 1.950000
						CHANNELS 3 Zrotation Yrotation Xrotation
						End Site
						{
							OFFSET 0.000000 0.000000 0.000000
						}
					}
				}
			}
		}
	}
	JOINT RHipJoint
	{
		OFFSET 0.000000 0.000000 0.000000
		CHANNELS 3 Zrotation Yrotation Xrotation
		JOINT RightUpLeg
		{
			OFFSET -1.800000 -1.400000 0.085000
			CHANNELS 3 Zrotation Yrotation Xrotation
			JOINT RightLeg
			{
				OFFSET -2.215000 -6.000000 0.000000
				CHANNELS 3 Zrotation Yrotation Xrotation
				JOINT RightFoot
				{
					OFFSET -2.500000 -6.900000 0.000000
					CHANNELS 3 Zrotation Yrotation Xrotation
					JOINT RightToeBase
					{
						OFFSET -0.200000 -0.500000 1.950000
						CHANNELS 3 Zrotation Yrotation Xrotation
						End Site
						{
							OFFSET 0.000000 0.000000 0.000000
						}
					}
				}
			}
		}
	}
	JOINT LowerBack
	{
		OFFSET 0.000000 0.000000 0.000000
		CHANNELS 3 Zrotation Yrotation Xrotation
		JOINT Spine
		{
			OFFSET -0.087000 1.940000 -0.288900
			CHANNELS 3 Zrotation Yrotation Xrotation
			JOINT Spine1
			{
				OFFSET 0.000000 1.950000 0.060000
				CHANNELS 3 Zrotation Yrotation Xrotation
				JOINT Neck
				{
					OFFSET 0.000000 0.000000 0.000000
					CHANNELS 3 Zrotation Yrotation Xrotation
					JOINT Neck1
					{
						OFFSET 0.000000 1.600000 0.340000
						CHANNELS 3 Zrotation Yrotation Xrotation
						JOINT Head
						{
							OFFSET 0.000000 1.667000 -0.240000
							CHANNELS 3 Zrotation Yrotation Xrotation
							End Site
							{
								OFFSET 0.000000 0.000000 0.000000
							}
						}
					}
				}
				JOINT LeftShoulder
				{
					OFFSET 0.000000 0.000000 0.000000
					CHANNELS 3 Zrotation Yrotation Xrotation
					JOINT LeftArm
					{
						OFFSET 2.700000 1.550000 -0.730000
						CHANNELS 3 Zrotation Yrotation Xrotation
						JOINT LeftForeArm
						{
							OFFSET 5.450000 0.000000 0.000000
							CHANNELS 3 Zrotation Yrotation Xrotation
							JOINT LeftHand
							{
								OFFSET 3.450000 0.000000 0.000000
								CHANNELS 3 Zrotation Yrotation Xrotation
								JOINT LeftHandIndex1
								{
									OFFSET 0.750000 0.000000 0.000000
									CHANNELS 3 Zrotation Yrotation Xrotation
									End Site
									{
										OFFSET 0.000000 0.000000 0.000000
									}
								}
							}
						}
					}
				}
				JOINT RightShoulder
				{
					OFFSET 0.000000 0.000000 0.000000
					CHANNELS 3 Zrotation Yrotation Xrotation
					JOINT RightArm
					{
						OFFSET -2.700000 1.550000 -0.730000
						CHANNELS 3 Zrotation Yrotation Xrotation
						JOINT RightForeArm
						{
							OFFSET -5.450000 0.000000 0.000000
							CHANNELS 3 Zrotation Yrotation Xrotation
							JOINT RightHand
							{
								OFFSET -3.450000 0.000000 0.000000
								CHANNELS 3 Zrotation Yrotation Xrotation
								JOINT RightHandIndex1
								{
									OFFSET -0.750000 0.000000 0.000000
									CHANNELS 3 Zrotation Yrotation Xrotation
									End Site
									{
										OFFSET 0.000000 0.000000 0.000000
									}
								}
							}
						}
					}
				}
			}
		}
	}
}
MOTION
Frames: 6
Frame Time: 0.016667
-0.016540 17.076820 -3.093200 -7.525216 -22.246235 7.053054 -16.005364 10.421346 6.236661 31.046024 -1.297021 -28.431725 -48.175983 16.046762 11.163242 0.559620 10.121030 1.052005 0.801980 0.386600 0.662190 18.070552 -7.548998 3.019991 -18.911297 6.594035 -33.485847 23.798903 -14.916458 33.003443 -0.929919 -6.970771 1.974250 0.295930 0.226890 0.263600 -2.531138 -3.546114 -9.260156 2.653524 -1.698790 16.000388 2.481719 -1.402715 4.725942 -0.329225 -5.829319 -5.776086 -13.651510 12.026997 34.622908 -3.535890 8.481870 -13.295770 -22.529030 0.507254 -0.415763 -44.191327 1.703604 -6.880875 -32.122085 -15.046842 0.363784 -3.714047 3.013880 0.737940 0.134300 0.030130 0.303800 23.471946 3.876306 2.377674 42.987110 -3.737948 -13.124376 33.470126 39.069015 6.830828 1.830130 -1.658747 -0.254320 0.292810 -0.203400 -0.326840 
-0.016440 17.063440 -3.094580 -7.502765 -22.361823 6.876656 -16.023586 10.469545 6.230180 31.070408 -1.296341 -28.516141 -48.098068 16.423091 11.777156 0.579319 10.178782 1.037106 0.789890 0.381290 0.645560 18.049010 -7.529147 3.027927 -19.047576 6.564304 -33.397065 23.981774 -14.986729 32.985872 -0.932624 -6.990462 1.974614 0.290760 0.235270 0.254420 -2.465381 -3.645624 -9.282153 2.286481 -1.600471 16.295656 2.948840 -1.352772 4.478361 -0.400304 -5.919866 -5.852718 -13.950165 12.196063 34.831244 -3.267880 8.458760 -13.142520 -22.639259 0.432510 -0.385432 -44.379934 1.658359 -6.837097 -32.078870 -14.868206 0.325679 -3.712475 3.005297 0.734860 0.132610 0.027890 0.307490 23.781456 4.098912 2.482567 42.343603 -3.919596 -13.067926 33.579491 39.147246 6.913638 1.830709 -1.654475 -0.257610 0.302810 -0.199710 -0.318810 
-0.011820 17.043490 -3.094750 -7.525143 -22.601591 6.572323 -16.027700 10.567905 6.188992 30.878588 -1.347130 -28.563321 -47.494149 16.935854 12.850255 0.601474 10.249250 1.030467 0.776060 0.359710 0.627000 18.028965 -7.546932 3.037229 -19.042609 6.562140 -33.226018 23.921576 -15.017619 33.137728 -0.934785 -7.013603 1.981433 0.272300 0.260940 0.260650 -2.412335 -3.747821 -9.298149 2.038948 -1.544311 16.805750 3.342120 -1.282746 3.962006 -0.460775 -6.054138 -5.924881 -14.369059 12.398376 35.140290 -2.983970 8.382010 -12.528980 -22.940785 0.416176 -0.394681 -44.219908 1.669432 -6.690874 -32.290527 -14.616009 0.311144 -3.716764 3.006051 0.731300 0.141390 0.021100 0.322310 24.261285 4.278168 2.585332 41.530028 -4.164364 -12.956653 33.907913 39.330495 7.114869 1.828344 -1.661904 -0.258460 0.308710 -0.197700 -0.305880 
-0.005840 17.030290 -3.092920 -7.615225 -22.903100 6.354485 -16.013517 10.665552 6.154275 30.639091 -1.366019 -28.673993 -46.782602 17.451979 13.971699 0.624655 10.307792 1.021853 0.743800 0.323880 0.599650 18.024077 -7.611985 3.022451 -18.483394 6.672960 -33.135365 23.067312 -14.774872 33.552883 -0.907837 -6.949114 2.017132 0.243490 0.280640 0.258840 -2.407147 -3.773943 -9.297387 2.086558 -1.546015 17.225282 3.414620 -1.205864 3.441493 -0.430315 -6.154167 -6.052966 -14.694738 12.509649 35.548541 -2.933170 8.381730 -11.754490 -23.015458 0.434520 -0.357234 -44.157337 1.783208 -6.623542 -32.524738 -14.451962 0.323414 -3.724275 3.003452 0.721300 0.149720 0.008740 0.322680 24.305480 4.368188 2.675416 41.351161 -4.233157 -12.869020 34.025470 39.206356 7.170847 1.839317 -1.654282 -0.259860 0.308320 -0.185400 -0.295860 
0.002200 17.037780 -3.092940 -7.542009 -23.071183 6.066829 -15.994406 10.823788 6.094762 29.955163 -1.539492 -28.876346 -45.541537 17.812874 15.256062 0.628502 10.307150 1.021493 0.702160 0.273200 0.575610 18.009985 -7.724841 2.981194 -17.622526 6.749475 -32.915119 21.561139 -14.249294 33.991494 -0.857392 -6.787297 2.077141 0.204750 0.285890 0.260680 -2.374283 -3.827129 -9.273811 1.931179 -1.450396 17.671095 3.544277 -1.059037 3.006000 -0.339759 -6.223996 -6.311056 -15.079473 12.517241 36.270758 -3.170240 8.425890 -11.009290 -22.933572 0.266411 -0.254922 -44.246449 1.758270 -6.573517 -32.629280 -14.227961 0.301325 -3.729902 2.999730 0.717970 0.151250 0.003090 0.311210 24.092583 4.642707 2.922639 41.706571 -4.440219 -13.044391 33.766550 39.152500 7.085718 1.856881 -1.636892 -0.259900 0.295930 -0.167430 -0.292690 
0.012880 17.065480 -3.098620 -7.370267 -22.949892 5.880820 -15.956455 10.992759 6.009950 28.876005 -1.882693 -29.390550 -43.770690 18.085899 16.862644 0.592003 10.271347 1.032460 0.661360 0.217480 0.563240 18.008206 -7.887583 2.922577 -16.523071 6.753871 -32.640545 19.656183 -13.474371 34.220801 -0.780566 -6.533016 2.169319 0.173720 0.294870 0.247650 -2.377647 -3.824057 -9.206754 1.879945 -1.426080 17.874215 3.386807 -0.981620 2.918479 -0.250518 -6.246648 -6.547453 -15.306773 12.450782 36.875983 -3.501200 8.464380 -10.242650 -22.735011 -0.023624 -0.107899 -44.086050 1.712615 -6.585412 -32.993085 -14.462414 0.396261 -3.737812 2.983918 0.720100 0.155560 -0.014950 0.293190 23.727264 4.951162 3.121333 42.489889 -4.369704 -13.270798 33.450592 39.203495 6.968384 1.869432 -1.612300 -0.278390 0.297830 -0.146810 -0.302010 
